<svg width="220" height="236" viewBox="0 0 220 236" fill="none" xmlns="http://www.w3.org/2000/svg">
<g clip-path="url(#clip0_3_94)">
<path d="M197.921 167.484C186.093 195.082 83.4265 127.9 79.3262 92.4157C75.0681 56.7741 150.767 -2.83877 198.079 16.8745C224.889 28.0716 225.835 65.9211 207.384 96.8315C191.771 123.011 204.229 152.659 197.921 167.484Z" fill="#E1F3FF"/>
<path d="M84.2151 0.315388C67.8136 2.99639 68.7599 39.4265 78.0645 52.3584C87.3692 65.2903 112.287 38.7957 113.075 25.0752C114.179 11.1971 98.0932 -2.0502 84.2151 0.315388Z" fill="#E1F3FF"/>
<path d="M52.6738 142.882C52.6738 142.882 16.086 126.953 11.0394 77.9067C11.0394 77.9067 49.6774 79.6415 66.2366 136.889L52.6738 142.882Z" fill="url(#paint0_linear_3_94)"/>
<path d="M13.5627 80.5878L56.6165 137.52L46.681 137.204C46.681 137.204 15.1398 119.857 13.5627 80.5878Z" fill="#BDE0FF"/>
<path d="M52.9892 146.824C52.9892 146.824 45.1039 110.71 5.04659 110.71C5.04659 110.71 7.41218 146.193 48.2581 147.928L52.9892 146.824Z" fill="url(#paint1_radial_3_94)"/>
<path d="M5.04659 110.71L52.9892 146.824L46.9964 146.667C46.9964 146.667 12.3011 145.405 5.04659 110.71Z" fill="#BDE0FF"/>
<path d="M190.667 174.738C190.667 174.738 190.667 186.882 179.154 186.882H41.7921C37.2186 186.409 34.0645 180.889 34.0645 177.104C34.0645 175.685 34.853 159.125 35.7993 139.254C37.3763 108.029 39.2688 68.7598 39.2688 68.7598C39.2688 68.7598 40.0573 63.3978 48.5735 62.767L115.441 63.3978L179.154 64.0286C179.154 64.0286 185.305 64.344 187.828 70.6523L190.667 174.738Z" fill="url(#paint2_linear_3_94)"/>
<path d="M40.0573 173.003C40.0573 173.003 137.047 178.523 183.097 173.634C183.097 173.634 187.355 120.96 181.52 72.0716C181.52 72.0716 109.133 67.025 46.0502 70.4945C46.0502 70.3368 39.7419 115.756 40.0573 173.003Z" fill="url(#paint3_linear_3_94)"/>
<path d="M35.0108 154.552H24.9176V165.118H34.5376L35.0108 154.552Z" fill="url(#paint4_linear_3_94)"/>
<path d="M165.907 175.685L170.953 186.882H179.154C179.154 186.882 189.247 187.513 190.667 174.738V153.763L184.201 154.552L183.097 173.477L165.907 175.685Z" fill="#361488"/>
<path d="M85.1613 206.122C61.6631 206.122 43.5269 202.81 34.853 200.76C23.1828 198.079 16.8746 195.713 14.8244 193.19C8.98925 192.244 4.41577 190.667 2.05018 188.459C0.630824 187.197 0 185.62 0 183.885C0 170.165 24.9176 159.756 25.8638 159.283L26.3369 160.387C26.0215 160.545 1.10394 170.953 1.10394 183.885C1.10394 185.305 1.57706 186.566 2.83871 187.512C4.88889 189.563 8.83154 190.982 14.0358 191.771C14.0358 191.613 14.0358 191.613 14.0358 191.455C13.7204 189.72 14.9821 188.143 17.8208 186.251C21.448 183.885 26.3369 183.412 31.0681 184.831C35.4839 186.251 39.1111 189.247 41.6344 193.19C50.6237 193.19 60.4014 192.717 70.0215 192.401C90.2079 191.613 109.29 190.982 120.33 193.032C124.43 193.821 126.323 194.609 126.323 195.871C126.323 196.817 125.376 198.079 117.964 199.498C98.5663 203.441 46.0502 206.122 42.4229 197.133C42.1075 196.186 41.6344 195.24 41.0036 194.294C32.0143 194.294 23.6559 194.136 16.8746 193.19C19.7133 195.082 25.7061 197.133 35.1685 199.34C49.2043 202.652 87.0538 209.118 133.577 199.971C157.706 195.24 160.387 191.455 160.545 190.036C160.703 188.616 158.179 187.512 157.391 187.197L157.706 186.093C157.864 186.093 161.806 187.512 161.649 190.036C161.491 193.821 152.344 197.448 133.735 201.075C116.072 204.86 99.6702 206.122 85.1613 206.122ZM42.4229 194.609C42.8961 195.398 43.2115 196.186 43.5269 196.975C45.5771 202.179 70.9677 203.125 94.7814 201.391C114.968 199.971 124.903 197.29 125.219 196.029C125.219 196.029 124.903 195.24 120.172 194.452C109.133 192.401 90.2079 193.19 70.0215 193.821C60.7168 194.136 51.2545 194.452 42.4229 194.609ZM15.4552 192.086C22.2366 193.19 30.7527 193.505 40.2151 193.348C37.8495 189.878 34.5376 187.355 30.595 186.093C26.3369 184.674 21.7634 185.147 18.2939 187.355C15.9283 188.932 14.8244 190.193 14.9821 191.297C15.1398 191.613 15.2975 191.928 15.4552 192.086Z" fill="url(#paint5_linear_3_94)"/>
<path d="M120.33 64.5017L116.387 67.9713C116.387 67.9713 58.8244 67.4981 45.1039 69.2329C45.1039 69.2329 39.1111 111.183 39.1111 137.204L35.7993 139.254V139.097C37.3763 107.871 39.2688 68.6021 39.2688 68.6021C39.2688 68.6021 40.0573 63.2401 48.5735 62.6093L115.441 63.2401L120.33 64.5017Z" fill="url(#paint6_linear_3_94)"/>
<path d="M40.0573 173.004L38.7957 174.423C38.7957 174.423 131.369 179.469 184.674 174.423L183.097 173.792C183.097 173.634 116.703 177.419 40.0573 173.004Z" fill="url(#paint7_linear_3_94)"/>
<path d="M73.3333 175.527L85.7921 184.832H142.409L133.892 176.789C133.735 176.789 83.2688 176.315 73.3333 175.527Z" fill="url(#paint8_linear_3_94)"/>
<path d="M24.9176 154.552L32.3298 152.975H35.0108V154.552H24.9176Z" fill="url(#paint9_linear_3_94)"/>
<path d="M49.362 81.5341C49.362 81.5341 46.681 97.4624 46.681 109.921H89.4193C89.4193 109.921 89.2616 88.9462 89.4193 81.5341H49.362Z" fill="#9275C2"/>
<path d="M62.9247 96.2007H55.9857L56.3011 89.1039H63.2401L62.9247 96.2007Z" fill="#6EFFE8"/>
<path d="M71.914 96.2007H64.8172L65.1326 89.1039H71.914V96.2007Z" fill="#839FFF"/>
<path d="M80.7455 96.2007H73.8064L73.9642 89.1039H80.7455V96.2007Z" fill="#6877FF"/>
<path d="M62.6093 105.978H55.3548L55.828 98.8817H62.767L62.6093 105.978Z" fill="#FF1D9C"/>
<path d="M71.5986 105.978H64.5018L64.8172 98.8817H71.7563L71.5986 105.978Z" fill="#981382"/>
<path d="M80.7455 105.978H73.6487L73.8064 98.8817H80.7455V105.978Z" fill="#140047"/>
<path d="M48.7312 86.4229H89.4193V81.5341H49.362L48.7312 86.4229Z" fill="url(#paint10_linear_3_94)"/>
<path d="M49.6774 85.6345L50.1505 82.3226H53.4624L53.147 85.6345H49.6774Z" fill="white"/>
<path d="M41.9498 124.745L110.867 69.2329C110.867 69.2329 77.9068 68.6021 46.0502 70.3369C46.0502 70.3369 43.2115 107.556 41.9498 124.745Z" fill="url(#paint11_linear_3_94)"/>
<path d="M109.29 140.358L110.394 130.423H121.591L122.38 139.885L118.753 142.566H113.075L109.29 140.358Z" fill="url(#paint12_linear_3_94)"/>
<path d="M115.756 95.5698C98.5663 95.5698 99.1971 114.179 105.348 121.118C109.606 126.007 107.871 127.9 108.344 128.846C108.817 129.792 110.394 130.423 110.394 130.423H115.914H121.434C121.434 130.423 123.011 129.792 123.484 128.846C123.957 127.9 122.065 126.007 126.48 121.118C132.631 114.021 133.419 95.5698 115.756 95.5698Z" fill="url(#paint13_linear_3_94)"/>
<path d="M113.075 142.566L114.495 143.513H117.176L118.753 142.566H113.075Z" fill="url(#paint14_linear_3_94)"/>
<path d="M104.244 106.136H107.713C107.713 106.136 108.344 101.72 110.394 99.5125L107.24 98.724C107.24 98.724 103.928 101.405 104.244 106.136Z" fill="white"/>
<path d="M123.799 118.279L125.692 119.383C125.692 119.383 129.477 115.283 129.319 109.606H126.638C126.638 109.448 126.953 114.495 123.799 118.279Z" fill="white"/>
<path d="M108.344 128.846C108.344 128.846 118.91 130.265 123.168 128.846C123.168 128.846 122.695 130.107 121.591 130.423L121.907 135.469C121.907 135.469 117.018 132.473 110.079 132.158L110.237 130.423C110.394 130.423 108.817 129.634 108.344 128.846Z" fill="url(#paint15_linear_3_94)"/>
<path d="M38.3226 86.4229H36.1147V92.258L38.0072 92.5734L38.3226 86.4229Z" fill="url(#paint16_linear_3_94)"/>
<path d="M37.8495 96.2007L36.1147 96.6738L35.6416 101.09L37.534 101.72L37.8495 96.2007Z" fill="url(#paint17_linear_3_94)"/>
<path d="M194.609 67.6558L205.176 60.2437L209.591 62.7669L197.763 73.6487L194.609 67.6558Z" fill="#FF1D9C"/>
<path d="M46.681 54.724L57.405 49.6774L60.2437 54.724L49.2043 57.5627L46.681 54.724Z" fill="#4F31E0"/>
<path d="M155.025 204.86L170.165 204.545L173.634 209.591L156.287 208.961L155.025 204.86Z" fill="#6877FF"/>
<path d="M150.609 100.301C150.609 100.301 146.509 114.337 147.297 120.172C147.297 120.172 147.771 126.323 154.394 126.638L161.491 108.975L150.609 100.301Z" fill="url(#paint18_linear_3_94)"/>
<path d="M120.33 112.918C120.33 112.918 117.806 114.81 117.964 115.599C118.122 116.387 120.803 117.649 120.803 117.649L120.33 112.918Z" fill="url(#paint19_linear_3_94)"/>
<path d="M206.91 188.143L204.229 234.351C204.229 234.351 166.538 183.885 155.183 174.896C154.237 174.108 153.29 173.319 152.344 172.688C143.039 165.591 138.781 164.803 137.362 164.014C135.785 163.068 132.789 158.652 132.473 157.233C132.158 155.814 132.158 134.839 130.896 130.265C129.634 125.534 124.115 120.803 123.642 119.068C123.168 117.333 125.219 114.495 127.269 114.179C129.319 113.864 139.885 117.018 143.197 127.584C143.197 127.584 141.935 129.95 141.147 132.789C140.358 135.627 141.462 140.358 141.462 140.358C141.462 140.358 145.878 141.147 147.771 140.674C149.663 140.201 153.29 129.634 152.975 121.434C152.817 113.391 144.932 97.7778 144.932 97.7778L139.097 83.8997C139.097 83.8997 145.878 80.5878 149.663 81.3764C149.663 81.3764 155.498 90.8387 158.968 92.8889C158.968 92.8889 166.695 94.1506 171.111 95.5699C171.111 95.5699 176.473 96.3585 180.889 99.9857C180.889 99.9857 185.778 100.301 188.143 102.194C190.351 103.928 200.444 116.545 200.918 120.014V120.172C201.233 124.272 193.505 147.613 178.208 162.91C178.208 162.91 181.835 166.38 187.197 171.269C192.717 176.315 199.971 182.624 206.91 188.143Z" fill="url(#paint20_linear_3_94)"/>
<path d="M190.509 106.925C189.878 107.24 189.09 107.556 188.459 107.556C188.459 107.556 166.065 111.025 149.821 114.179C141.147 115.756 134.208 117.176 133.104 117.806C132 118.437 131.369 119.068 130.896 119.857C129.792 121.434 129.792 122.853 129.792 122.853C129.792 122.853 124.903 122.38 120.961 117.649C120.961 117.649 119.068 115.756 120.014 113.391C120.014 113.391 121.591 109.29 125.849 106.609C126.796 105.978 127.9 105.505 129.161 105.032C129.161 105.032 129.161 105.348 129.319 105.663C129.477 106.452 129.95 107.713 131.054 107.713C131.842 107.713 142.566 103.771 154.867 98.724C167.011 93.8351 180.731 87.8423 188.774 83.4265C188.774 83.4265 196.344 83.5842 197.763 92.1004C199.025 99.1971 194.925 104.717 190.509 106.925Z" fill="url(#paint21_linear_3_94)"/>
<path opacity="0.86" d="M149.821 114.021C141.147 115.599 134.208 117.018 133.104 117.649C132 118.28 131.369 118.91 130.896 119.699L125.534 121.118C122.695 115.283 126.007 106.452 126.007 106.452L129.477 105.505C129.634 106.294 130.108 107.556 131.211 107.556C132 107.556 142.724 103.613 155.025 98.5663C149.032 104.875 149.821 114.021 149.821 114.021Z" fill="#9A7AB3"/>
<path d="M125.849 106.452C125.849 106.452 127.427 111.656 136.889 107.24C136.889 107.24 149.505 96.043 152.029 85.0036L149.663 81.534C149.663 81.534 142.724 80.4301 139.097 84.0573C139.097 84.0573 137.677 92.5735 134.05 98.4086C132.789 100.301 125.849 104.559 125.849 104.559V106.452Z" fill="url(#paint22_linear_3_94)"/>
<path d="M123.642 119.068C123.642 119.068 130.423 127.742 130.896 130.265C131.369 132.789 132.315 156.602 132.315 156.602C132.315 156.602 131.842 147.14 141.462 140.516C141.462 140.516 140.989 137.204 141.462 133.893C141.935 130.423 142.882 129.161 143.197 127.742C143.513 126.323 139.254 114.652 128.846 113.233C128.846 113.233 126.953 113.864 125.692 115.126C124.115 116.387 123.642 119.068 123.642 119.068Z" fill="url(#paint23_linear_3_94)"/>
<path d="M208.645 227.885C207.384 231.039 205.333 233.405 203.283 235.455L191.613 217.95C191.613 217.95 186.566 220.789 185.147 220.473C181.362 219.685 181.362 211.642 181.362 211.642C181.362 211.642 180.416 202.022 182.939 192.244C184.674 185.462 188.143 178.523 195.082 174.896C195.082 174.896 199.656 173.319 202.968 181.204L212.588 187.67C212.43 187.67 214.953 212.43 208.645 227.885Z" fill="url(#paint24_linear_3_94)"/>
<path opacity="0.5" d="M208.645 227.885C207.384 231.039 205.806 233.72 203.599 235.771L191.455 217.95C191.455 217.95 186.409 220.789 184.989 220.473C181.204 219.685 181.204 211.642 181.204 211.642C181.204 211.642 180.258 202.022 182.781 192.244C182.624 193.505 180.1 209.276 183.57 214.48C187.197 220 193.19 184.989 202.81 181.204C202.81 181.204 193.032 197.29 193.821 208.487C194.767 219.685 208.645 227.885 208.645 227.885Z" fill="url(#paint25_linear_3_94)"/>
<path d="M178.366 163.068C178.366 163.068 181.993 166.538 187.355 171.427C187.355 171.427 174.581 168.272 163.857 169.534C155.971 170.48 153.29 172.057 152.344 172.846C143.039 165.749 138.781 164.961 137.362 164.172L149.505 156.602C149.505 156.602 161.333 130.581 162.91 117.176L159.914 112.287L168.903 113.548C168.903 113.548 174.896 115.283 184.989 115.125C184.989 115.125 190.194 117.806 194.767 117.333L200.918 120.172V120.33C201.391 124.272 193.663 147.613 178.366 163.068Z" fill="url(#paint26_linear_3_94)"/>
<path d="M141.462 140.516C141.462 140.516 144.459 143.355 147.14 143.828C147.14 143.828 149.505 140.989 150.925 135.47C150.925 135.47 149.505 139.412 147.771 140.201C147.771 140.043 144.932 141.462 141.462 140.516Z" fill="url(#paint27_linear_3_94)"/>
<path d="M123.642 119.068C123.642 119.068 129.161 126.165 130.738 126.165C132.946 126.165 134.208 122.853 132.631 118.437C131.527 115.283 128.215 114.021 128.215 114.021C128.215 114.021 125.534 114.495 123.642 119.068Z" fill="url(#paint28_linear_3_94)"/>
<path d="M124.43 120.014C124.43 120.014 126.165 116.387 129.477 114.652L128.373 114.021C128.373 114.021 125.534 114.81 123.642 119.068L124.43 120.014Z" fill="url(#paint29_linear_3_94)"/>
<path d="M131.054 115.914C131.054 115.914 133.892 118.28 133.262 122.853C132.631 127.426 129.792 126.007 128.688 124.903C128.688 124.903 129.95 126.323 131.211 126.48C132.473 126.638 134.05 125.061 134.05 121.907C134.05 118.753 131.054 115.914 131.054 115.914Z" fill="url(#paint30_linear_3_94)"/>
<path d="M190.509 106.925L189.72 107.24C189.72 107.24 184.043 102.982 184.043 94.1505C184.043 86.2652 188.774 83.2688 188.774 83.2688C188.774 83.2688 196.344 83.4265 197.763 91.9426C199.025 99.1971 194.925 104.717 190.509 106.925Z" fill="url(#paint31_linear_3_94)"/>
<path d="M194.294 95.7276L194.136 95.8853C194.136 95.8853 192.401 94.7814 192.401 92.7312C192.401 90.8387 193.978 90.2079 193.978 90.2079C193.978 90.2079 195.713 90.2079 196.186 92.2581C196.344 93.9928 195.24 95.2545 194.294 95.7276Z" fill="url(#paint32_linear_3_94)"/>
<path opacity="0.86" d="M193.663 94.7814C193.505 94.7814 192.717 94.3083 192.717 93.0467C192.717 91.9427 193.505 91.1542 193.505 91.1542C193.505 91.1542 194.609 91.1542 194.925 92.4158C194.925 93.6775 194.294 94.466 193.663 94.7814Z" fill="#9A7AD9"/>
<path d="M145.09 98.0933L141.462 89.5771L142.566 101.09C142.566 101.247 143.828 99.6703 145.09 98.0933Z" fill="url(#paint33_linear_3_94)"/>
<path d="M140.358 105.663L172.373 93.0466L171.111 95.5699L140.358 106.925V105.663Z" fill="url(#paint34_linear_3_94)"/>
<path d="M173.319 95.4122L174.738 91.785L181.204 88.6309L179.627 93.5197L173.319 95.4122Z" fill="white"/>
<path d="M194.925 97.7778C194.925 97.7778 194.452 99.828 192.875 101.72L194.136 102.982C194.136 102.982 196.344 101.247 196.817 98.5664L194.925 97.7778Z" fill="white"/>
<path d="M201.548 182.466C200.444 176.473 195.082 175.369 194.925 175.369L195.082 174.581C195.082 174.581 201.075 175.842 202.337 182.308L201.548 182.466Z" fill="white"/>
<path d="M199.025 186.093C196.029 180.573 190.036 178.996 190.036 178.996L190.194 178.366C190.509 178.366 196.502 180.1 199.656 185.778L199.025 186.093Z" fill="white"/>
<path d="M196.817 190.194C192.244 186.409 185.62 185.147 185.62 185.147L185.778 184.359C186.093 184.359 192.559 185.62 197.29 189.563L196.817 190.194Z" fill="white"/>
<path d="M194.609 196.975C189.247 193.032 183.097 191.455 183.097 191.298L183.254 190.667C183.254 190.667 189.563 192.244 195.082 196.344L194.609 196.975Z" fill="white"/>
<path d="M193.032 203.126C185.462 199.498 181.52 199.971 181.52 199.971L181.362 199.183C181.52 199.183 185.462 198.71 193.348 202.337L193.032 203.126Z" fill="white"/>
<path d="M188.143 209.749C184.201 209.749 181.362 208.961 181.204 208.961L181.362 208.33C181.362 208.33 186.409 209.591 192.244 208.803L192.401 209.591C190.824 209.591 189.405 209.749 188.143 209.749Z" fill="white"/>
<path d="M182.466 217.95C182.308 217.95 182.466 217.95 182.466 217.95L182.308 217.161C182.308 217.161 186.251 217.319 191.297 214.165L191.613 214.796C186.882 217.792 183.254 217.95 182.466 217.95Z" fill="white"/>
<path d="M191.928 217.95H191.14C191.14 217.634 191.455 192.086 202.652 180.889L203.125 181.362C192.244 192.401 191.928 217.792 191.928 217.95Z" fill="white"/>
<path d="M139.097 84.0573C139.097 84.0573 143.986 92.1003 147.297 95.2544C152.029 99.8279 157.706 95.5699 157.706 95.5699L158.81 93.6774C158.81 93.6774 153.133 87.5268 149.821 81.534C149.663 81.534 143.197 80.2724 139.097 84.0573Z" fill="#E1D197"/>
</g>
<defs>
<linearGradient id="paint0_linear_3_94" x1="41.2762" y1="143.68" x2="36.2916" y2="75.9531" gradientUnits="userSpaceOnUse">
<stop stop-color="#1C257B"/>
<stop offset="1" stop-color="#6A2C9A"/>
</linearGradient>
<radialGradient id="paint1_radial_3_94" cx="0" cy="0" r="1" gradientUnits="userSpaceOnUse" gradientTransform="translate(24.2823 111.246) rotate(169.647) scale(31.1266 31.1266)">
<stop stop-color="#3996F7"/>
<stop offset="1" stop-color="#6840D5"/>
</radialGradient>
<linearGradient id="paint2_linear_3_94" x1="112.308" y1="186.874" x2="112.308" y2="62.7678" gradientUnits="userSpaceOnUse">
<stop stop-color="#1C257B"/>
<stop offset="1" stop-color="#482C83"/>
</linearGradient>
<linearGradient id="paint3_linear_3_94" x1="112.281" y1="175.575" x2="112.281" y2="69.1846" gradientUnits="userSpaceOnUse">
<stop stop-color="#FDFDFF"/>
<stop offset="1" stop-color="#DBCAFF"/>
</linearGradient>
<linearGradient id="paint4_linear_3_94" x1="29.9482" y1="165.103" x2="29.9482" y2="154.625" gradientUnits="userSpaceOnUse">
<stop stop-color="#1C257B"/>
<stop offset="1" stop-color="#482C83"/>
</linearGradient>
<linearGradient id="paint5_linear_3_94" x1="80.8326" y1="206.117" x2="80.8326" y2="159.305" gradientUnits="userSpaceOnUse">
<stop stop-color="#1C257B"/>
<stop offset="1" stop-color="#482C83"/>
</linearGradient>
<linearGradient id="paint6_linear_3_94" x1="78.0133" y1="139.362" x2="78.0133" y2="62.7677" gradientUnits="userSpaceOnUse">
<stop stop-color="#B9ACF4"/>
<stop offset="1" stop-color="#E1D1F5"/>
</linearGradient>
<linearGradient id="paint7_linear_3_94" x1="111.616" y1="176.58" x2="111.616" y2="172.964" gradientUnits="userSpaceOnUse">
<stop stop-color="#744FD8"/>
<stop offset="1" stop-color="#3996F7"/>
</linearGradient>
<linearGradient id="paint8_linear_3_94" x1="107.862" y1="184.877" x2="107.862" y2="175.575" gradientUnits="userSpaceOnUse">
<stop stop-color="#B9ACF4"/>
<stop offset="1" stop-color="#E1D1F5"/>
</linearGradient>
<linearGradient id="paint9_linear_3_94" x1="29.9482" y1="154.625" x2="29.9482" y2="152.954" gradientUnits="userSpaceOnUse">
<stop stop-color="#744FD8"/>
<stop offset="1" stop-color="#3996F7"/>
</linearGradient>
<linearGradient id="paint10_linear_3_94" x1="69.0663" y1="86.4289" x2="69.0663" y2="81.5072" gradientUnits="userSpaceOnUse">
<stop stop-color="#B9ACF4"/>
<stop offset="1" stop-color="#E1D1F5"/>
</linearGradient>
<linearGradient id="paint11_linear_3_94" x1="76.358" y1="124.821" x2="76.358" y2="69.1989" gradientUnits="userSpaceOnUse">
<stop stop-color="#B9ACF4"/>
<stop offset="1" stop-color="#E1D1F5"/>
</linearGradient>
<linearGradient id="paint12_linear_3_94" x1="115.821" y1="142.517" x2="115.821" y2="130.477" gradientUnits="userSpaceOnUse">
<stop stop-color="#EFEAFF"/>
<stop offset="1" stop-color="#D1BBFF"/>
</linearGradient>
<linearGradient id="paint13_linear_3_94" x1="115.927" y1="130.477" x2="115.927" y2="95.6173" gradientUnits="userSpaceOnUse">
<stop stop-color="#CF95FF"/>
<stop offset="1" stop-color="#9552FF"/>
</linearGradient>
<linearGradient id="paint14_linear_3_94" x1="115.874" y1="143.554" x2="115.874" y2="142.517" gradientUnits="userSpaceOnUse">
<stop stop-color="#1C257B"/>
<stop offset="1" stop-color="#482C83"/>
</linearGradient>
<linearGradient id="paint15_linear_3_94" x1="108.377" y1="132.182" x2="123.265" y2="132.182" gradientUnits="userSpaceOnUse">
<stop stop-color="#8B8BE0"/>
<stop offset="1" stop-color="white"/>
</linearGradient>
<linearGradient id="paint16_linear_3_94" x1="37.2128" y1="92.6155" x2="37.2128" y2="86.4288" gradientUnits="userSpaceOnUse">
<stop stop-color="#1C257B"/>
<stop offset="1" stop-color="#482C83"/>
</linearGradient>
<linearGradient id="paint17_linear_3_94" x1="36.7517" y1="101.665" x2="36.7517" y2="96.1841" gradientUnits="userSpaceOnUse">
<stop stop-color="#1C257B"/>
<stop offset="1" stop-color="#482C83"/>
</linearGradient>
<linearGradient id="paint18_linear_3_94" x1="147.114" y1="113.472" x2="161.256" y2="113.472" gradientUnits="userSpaceOnUse">
<stop stop-color="#CF6074"/>
<stop offset="1" stop-color="#FF817F"/>
</linearGradient>
<linearGradient id="paint19_linear_3_94" x1="119.434" y1="117.621" x2="119.434" y2="112.875" gradientUnits="userSpaceOnUse">
<stop stop-color="#1C257B"/>
<stop offset="1" stop-color="#482C83"/>
</linearGradient>
<linearGradient id="paint20_linear_3_94" x1="165.212" y1="234.34" x2="165.212" y2="81.3598" gradientUnits="userSpaceOnUse">
<stop offset="0.0159875" stop-color="#FFC2A9"/>
<stop offset="1" stop-color="#FF9595"/>
</linearGradient>
<linearGradient id="paint21_linear_3_94" x1="158.857" y1="122.782" x2="158.857" y2="83.2087" gradientUnits="userSpaceOnUse">
<stop stop-color="#1C257B"/>
<stop offset="1" stop-color="#482C83"/>
</linearGradient>
<linearGradient id="paint22_linear_3_94" x1="138.851" y1="109.039" x2="138.851" y2="81.2995" gradientUnits="userSpaceOnUse">
<stop offset="0.0159875" stop-color="#FF9A93"/>
<stop offset="1" stop-color="#FF9595"/>
</linearGradient>
<linearGradient id="paint23_linear_3_94" x1="133.392" y1="156.551" x2="133.392" y2="113.116" gradientUnits="userSpaceOnUse">
<stop offset="0.0159875" stop-color="#FF9A93"/>
<stop offset="1" stop-color="#FF9595"/>
</linearGradient>
<linearGradient id="paint24_linear_3_94" x1="197.032" y1="235.568" x2="197.032" y2="174.806" gradientUnits="userSpaceOnUse">
<stop stop-color="#744FD8"/>
<stop offset="1" stop-color="#3996F7"/>
</linearGradient>
<linearGradient id="paint25_linear_3_94" x1="194.866" y1="235.835" x2="194.866" y2="181.24" gradientUnits="userSpaceOnUse">
<stop stop-color="#8B8BE0"/>
<stop offset="1" stop-color="white"/>
</linearGradient>
<linearGradient id="paint26_linear_3_94" x1="169.167" y1="172.778" x2="169.167" y2="112.272" gradientUnits="userSpaceOnUse">
<stop offset="0.0159875" stop-color="#FF997C"/>
<stop offset="1" stop-color="#FF898E"/>
</linearGradient>
<linearGradient id="paint27_linear_3_94" x1="141.433" y1="139.491" x2="150.871" y2="139.491" gradientUnits="userSpaceOnUse">
<stop stop-color="#CF6074"/>
<stop offset="1" stop-color="#FF817F"/>
</linearGradient>
<linearGradient id="paint28_linear_3_94" x1="123.653" y1="120.083" x2="133.373" y2="120.083" gradientUnits="userSpaceOnUse">
<stop stop-color="#B9ACF4"/>
<stop offset="1" stop-color="#E1D1F5"/>
</linearGradient>
<linearGradient id="paint29_linear_3_94" x1="126.574" y1="119.995" x2="126.574" y2="114.077" gradientUnits="userSpaceOnUse">
<stop stop-color="#B9ACF4"/>
<stop offset="1" stop-color="#E1D1F5"/>
</linearGradient>
<linearGradient id="paint30_linear_3_94" x1="131.366" y1="126.352" x2="131.366" y2="115.861" gradientUnits="userSpaceOnUse">
<stop stop-color="#CF6074"/>
<stop offset="1" stop-color="#FF817F"/>
</linearGradient>
<linearGradient id="paint31_linear_3_94" x1="191.07" y1="107.226" x2="191.07" y2="83.2087" gradientUnits="userSpaceOnUse">
<stop stop-color="#B9ACF4"/>
<stop offset="1" stop-color="#E1D1F5"/>
</linearGradient>
<linearGradient id="paint32_linear_3_94" x1="194.219" y1="95.8624" x2="194.219" y2="90.1614" gradientUnits="userSpaceOnUse">
<stop stop-color="#FDFDFF"/>
<stop offset="1" stop-color="#DBCAFF"/>
</linearGradient>
<linearGradient id="paint33_linear_3_94" x1="143.263" y1="101.214" x2="143.263" y2="89.6265" gradientUnits="userSpaceOnUse">
<stop stop-color="#CF6074"/>
<stop offset="1" stop-color="#FF817F"/>
</linearGradient>
<linearGradient id="paint34_linear_3_94" x1="156.361" y1="106.929" x2="156.361" y2="93.0119" gradientUnits="userSpaceOnUse">
<stop stop-color="#B9ACF4"/>
<stop offset="1" stop-color="#E1D1F5"/>
</linearGradient>
<clipPath id="clip0_3_94">
<rect width="220" height="235.771" fill="white"/>
</clipPath>
</defs>
</svg>
