<svg width="220" height="219" viewBox="0 0 220 219" fill="none" xmlns="http://www.w3.org/2000/svg">
<g clip-path="url(#clip0_3_44)">
<path d="M175.552 128.355C196.226 119.014 208.285 48.609 192.435 21.9692C176.586 -4.67063 88.8959 -10.2062 48.5826 21.9692C8.44168 54.3175 50.9945 120.052 80.6265 129.912C110.086 139.6 161.942 134.583 175.552 128.355Z" fill="#E1F3FF"/>
<path d="M29.9765 98.2559C16.711 99.6397 23.7745 150.325 42.7251 156.898C61.6758 163.644 73.563 146.692 71.8403 138.216C70.1175 130.085 40.8301 97.2179 29.9765 98.2559Z" fill="#E1F3FF"/>
<path d="M165.043 114.517C165.043 114.517 174.174 73 220 73C220 73 217.244 113.825 170.384 115.727L165.043 114.517Z" fill="url(#paint0_radial_3_44)"/>
<path d="M220 73L165.043 114.517L172.106 114.344C172.106 114.344 211.731 112.96 220 73Z" fill="#BDE0FF"/>
<path d="M75.2858 192.187C75.2858 192.187 29.632 193.744 0 145.481C0 145.481 40.8301 128.009 86.3117 179.213L75.2858 192.187Z" fill="url(#paint1_linear_3_44)"/>
<path d="M3.9624 147.038L76.6641 184.576L66.3273 189.074C66.3273 189.246 25.1527 186.998 3.9624 147.038Z" fill="#BDE0FF"/>
<path d="M44.9648 216.405L39.7964 204.642H193.814L191.402 219C191.402 219 113.359 213.118 44.9648 216.405Z" fill="url(#paint2_linear_3_44)"/>
<path d="M39.7964 204.642L62.5372 59.507L177.964 53.1066L193.986 204.642H39.7964Z" fill="url(#paint3_linear_3_44)"/>
<path d="M98.7157 47.225V38.7487C98.7157 38.7487 123.007 33.3862 148.16 36.3269L147.298 44.6303C147.126 44.6303 126.797 42.3814 98.7157 47.225Z" fill="url(#paint4_linear_3_44)"/>
<path d="M98.7157 47.2251L101.472 48.9549L144.025 47.2251L147.298 44.6303C147.126 44.6303 124.213 41.6895 98.7157 47.2251Z" fill="#140047"/>
<path opacity="0.86" d="M52.3727 197.204L186.061 197.896L173.485 60.5449L77.5254 58.8151L52.3727 197.204Z" fill="#9ABAB3"/>
<path d="M186.061 197.896C128.348 184.922 46.6875 197.896 46.6875 197.896L68.5669 52.9336C124.385 36.3269 177.447 38.7487 177.447 38.7487V39.0947L186.061 197.896Z" fill="url(#paint5_linear_3_44)"/>
<path d="M114.221 51.3768C114.221 51.7227 114.049 52.0687 114.049 52.4147C113.876 52.7606 113.704 53.1066 113.359 53.4526C113.015 53.7986 112.843 54.1445 112.326 54.4905C111.981 54.8365 111.464 55.1824 110.948 55.3554C111.464 55.3554 111.809 55.5284 111.981 55.7014C112.326 55.8744 112.498 56.0474 112.498 56.2204C112.67 56.3933 112.67 56.5663 112.67 56.7393C112.67 56.9123 112.67 57.0853 112.67 57.2583C112.67 57.6042 112.498 58.1232 112.326 58.2962C112.153 58.6422 111.809 58.9881 111.637 59.1611C111.292 59.3341 110.948 59.6801 110.603 59.8531C110.603 60.372 110.258 60.545 109.914 60.545C109.569 60.718 109.225 60.718 108.88 60.891C108.536 60.891 108.363 61.064 108.191 61.064C108.019 61.064 107.674 61.064 107.502 61.064C107.33 61.064 107.157 61.064 106.813 61.064C106.641 61.064 106.296 61.064 106.124 61.064C106.296 60.026 106.296 58.9881 106.468 57.9502C106.641 56.5663 106.641 55.1824 106.641 53.9715C106.641 52.5877 106.641 51.3768 106.468 49.9929C106.813 49.8199 107.157 49.6469 107.674 49.6469C108.019 49.4739 108.363 49.4739 108.708 49.3009C109.052 49.1279 109.397 49.1279 109.742 49.1279C109.914 49.1279 110.258 49.1279 110.603 48.955C110.948 48.955 111.292 48.955 111.637 48.955C111.981 48.955 112.326 49.1279 112.67 49.1279C113.015 49.3009 113.359 49.3009 113.532 49.6469C113.704 49.8199 114.049 50.1659 114.049 50.3388C114.221 50.6848 114.393 51.0308 114.221 51.3768ZM110.775 57.6042C110.775 57.4313 110.775 57.0853 110.603 56.9123L110.431 56.7393C110.431 56.7393 110.258 56.5663 110.086 56.5663C109.914 56.5663 109.742 56.3933 109.569 56.3933C109.397 56.3933 109.225 56.3933 108.88 56.3933C108.88 56.9123 108.708 57.6042 108.708 58.1232C108.708 58.6422 108.536 59.1611 108.536 59.8531C108.708 59.6801 109.052 59.6801 109.225 59.5071C109.397 59.3341 109.569 59.3341 109.742 59.1611C109.914 58.9881 110.086 58.9881 110.086 58.8151C110.258 58.6422 110.258 58.6422 110.431 58.4692C110.603 58.1232 110.775 57.9502 110.775 57.6042ZM111.809 52.2417C111.809 52.0687 111.809 51.8957 111.809 51.7227C111.809 51.5497 111.809 51.3768 111.637 51.2038C111.637 51.0308 111.464 50.8578 111.292 50.6848C111.12 50.5118 110.948 50.5118 110.603 50.3388C110.258 50.3388 109.914 50.3388 109.569 50.3388C109.397 51.2038 109.397 52.0687 109.225 53.1066C109.052 53.9715 109.052 54.8365 108.88 55.7014C109.225 55.5284 109.397 55.3554 109.742 55.1824C109.914 55.0095 110.258 54.8365 110.431 54.6635C110.603 54.4905 110.775 54.3175 110.948 54.1445C111.12 53.9715 111.12 53.7986 111.292 53.6256C111.637 53.1066 111.809 52.7606 111.809 52.2417Z" fill="#EF138B"/>
<path d="M122.662 50.5118C122.662 50.8578 122.49 51.2038 122.49 51.5497C122.318 51.8957 122.146 52.2417 121.973 52.7606C121.629 53.1066 121.457 53.4526 120.94 53.7985C120.595 54.1445 120.078 54.4905 119.561 54.6635C119.906 55.3554 120.423 56.0474 120.94 56.7393C121.457 57.4312 121.973 57.9502 122.662 58.6422C121.457 58.8151 120.767 58.8151 119.561 59.1611C118.872 57.6042 118.528 56.9123 117.666 55.5284C117.666 56.2203 117.666 56.9123 117.666 57.4313C117.666 58.1232 117.666 58.6421 117.666 59.3341C116.46 59.5071 115.771 59.5071 114.565 59.6801C114.738 58.4692 114.91 57.2583 115.082 55.8744C115.254 54.6635 115.427 53.4526 115.427 52.0687C115.427 51.3767 115.599 50.6848 115.599 49.9929C115.599 49.3009 115.599 48.609 115.599 47.917C116.116 47.744 116.46 47.5711 116.977 47.5711C117.494 47.3981 117.839 47.3981 118.183 47.3981C118.356 47.3981 118.7 47.3981 119.045 47.3981C119.389 47.3981 119.734 47.3981 120.078 47.3981C120.423 47.3981 120.767 47.5711 121.112 47.744C121.457 47.917 121.801 48.09 121.973 48.263C122.146 48.436 122.49 48.782 122.49 49.1279C122.662 49.6469 122.835 49.9929 122.662 50.5118ZM117.666 54.3175C118.011 54.1445 118.183 54.1445 118.528 53.9715C118.7 53.7985 119.045 53.6256 119.217 53.4526C119.389 53.2796 119.561 53.1066 119.734 52.9336C119.906 52.7606 119.906 52.5876 120.078 52.4147C120.251 52.0687 120.423 51.7227 120.423 51.2038C120.423 51.2038 120.423 51.2038 120.423 51.0308C120.423 50.8578 120.423 50.6848 120.423 50.5118C120.423 50.3388 120.423 50.1658 120.251 49.9929C120.251 49.8199 120.078 49.6469 119.906 49.4739C119.734 49.3009 119.561 49.1279 119.389 48.9549C119.217 48.782 118.872 48.782 118.528 48.782C118.356 49.6469 118.183 50.5118 118.011 51.3767C117.839 52.2417 117.839 53.1066 117.666 53.9715C117.666 53.9715 117.666 54.1445 117.666 54.3175Z" fill="#EF138B"/>
<path d="M128.348 58.2962C128.003 58.2962 127.659 58.2962 127.314 58.2962C126.969 58.2962 126.625 58.2962 126.28 58.2962C125.764 58.2962 125.247 58.4692 124.558 58.4692C124.041 58.4692 123.524 58.6422 122.835 58.6422C122.835 57.9503 123.007 57.6043 123.007 56.9124C123.179 56.9124 123.352 56.9124 123.524 56.9124C123.696 56.9124 123.868 56.9124 124.041 56.9124C124.213 56.0474 124.213 55.1825 124.385 54.3176C124.558 53.4526 124.558 52.5877 124.73 51.7228C124.73 51.2038 124.73 50.5119 124.902 49.9929C124.902 49.474 124.902 48.955 124.902 48.2631C124.73 48.2631 124.385 48.2631 124.213 48.2631C124.041 48.2631 123.696 48.2631 123.524 48.4361C123.524 47.7441 123.696 47.3981 123.696 46.7062C124.385 46.7062 124.902 46.5332 125.591 46.5332C126.28 46.5332 126.969 46.3602 127.486 46.3602C127.659 46.3602 128.003 46.3602 128.175 46.3602C128.348 46.3602 128.692 46.3602 128.865 46.3602C128.692 47.0522 128.692 47.3981 128.692 48.0901C128.52 48.0901 128.348 48.0901 128.175 48.0901C128.003 48.0901 127.831 48.0901 127.659 48.0901C127.659 49.128 127.486 50.1659 127.486 51.2038C127.314 52.2417 127.314 53.1067 127.142 54.1446C127.142 55.0095 126.969 55.8744 126.969 56.7394C127.314 56.7394 127.486 56.7394 127.831 56.7394C128.175 56.7394 128.348 56.7394 128.692 56.7394C128.52 57.2583 128.52 57.6043 128.348 58.2962Z" fill="#EF138B"/>
<path d="M135.067 53.4526C134.722 53.4526 134.55 53.4526 134.205 53.4526C133.861 53.4526 133.688 53.4526 133.344 53.4526C133.171 53.4526 132.999 53.4526 132.827 53.4526C132.655 53.4526 132.482 53.4526 132.31 53.4526C132.138 54.6635 132.138 55.1824 131.966 56.3933C132.655 56.3933 133.344 56.2204 134.033 56.2204C134.722 56.2204 135.411 56.0474 136.1 56.0474C136.1 56.7393 135.928 57.0853 135.928 57.7772C135.411 57.7772 135.067 57.7772 134.55 57.7772C134.033 57.7772 133.688 57.7772 133.171 57.7772C132.482 57.7772 131.793 57.7772 131.276 57.9502C130.587 57.9502 129.898 58.1232 129.381 58.1232C129.554 57.0853 129.726 56.0474 129.898 55.0095C130.07 53.9715 130.07 52.9336 130.243 51.8957C130.243 50.8578 130.415 49.9929 130.415 48.955C130.415 47.917 130.415 47.0521 130.415 46.0142C131.449 46.0142 132.31 46.0142 133.344 45.8412C133.861 45.8412 134.55 45.8412 135.067 45.6682C135.583 45.6682 136.272 45.4952 136.962 45.4952C136.962 46.1872 136.789 46.7061 136.789 47.3981C136.272 47.3981 135.756 47.3981 135.239 47.3981C134.722 47.3981 134.205 47.3981 133.688 47.3981C133.516 47.3981 133.344 47.3981 133.171 47.3981C132.999 48.09 132.827 48.782 132.827 49.4739C132.827 50.5118 132.655 51.8957 132.655 52.0687C132.655 52.0687 133.171 52.0687 133.344 52.0687C133.516 52.0687 133.861 52.0687 134.033 52.0687C134.205 52.0687 134.377 52.0687 134.55 52.0687C134.722 52.0687 134.894 52.0687 135.239 52.0687C135.239 52.5877 135.239 52.9336 135.067 53.4526Z" fill="#EF138B"/>
<path d="M142.991 53.2796C142.647 53.2796 142.475 53.2796 142.13 53.2796C141.785 53.2796 141.613 53.2796 141.269 53.2796C141.096 53.2796 140.924 53.2796 140.752 53.2796C140.579 53.2796 140.407 53.2796 140.235 53.2796C140.063 55.1824 140.063 56.0474 140.063 57.9502C139.89 57.9502 139.718 57.9502 139.374 57.9502C139.201 57.9502 138.857 57.9502 138.684 57.9502C138.512 57.9502 138.34 57.9502 138.168 57.9502C137.995 57.9502 137.823 57.9502 137.651 57.9502C137.478 57.9502 137.306 57.9502 137.134 57.9502C137.306 56.9123 137.478 55.8744 137.651 54.8365C137.823 53.7985 137.823 52.7606 137.995 51.7227C138.168 50.6848 138.168 49.6469 138.168 48.782C138.168 47.744 138.168 46.8791 138.168 45.8412C139.201 45.8412 140.063 45.8412 141.096 45.8412C141.613 45.8412 142.302 45.8412 142.819 45.8412C143.336 45.8412 144.025 45.8412 144.714 45.6682C144.714 46.5331 144.542 46.8791 144.542 47.5711C144.025 47.5711 143.508 47.3981 142.991 47.3981C142.475 47.3981 141.958 47.3981 141.441 47.3981C141.269 47.3981 141.096 47.3981 140.924 47.3981C140.752 48.09 140.752 48.609 140.579 49.3009C140.579 49.9929 140.407 50.6848 140.407 51.2038C140.407 51.3767 140.407 51.3767 140.407 51.5497C140.579 51.5497 140.752 51.5497 141.096 51.5497C141.269 51.5497 141.441 51.5497 141.785 51.5497C141.958 51.5497 142.13 51.5497 142.302 51.5497C142.475 51.5497 142.647 51.5497 142.991 51.5497C142.991 52.2417 142.991 52.5876 142.991 53.2796Z" fill="#EF138B"/>
<path opacity="0.62" d="M76.1472 71.789C76.1472 71.789 95.4424 65.2156 130.415 63.3127V70.2322C130.415 70.2322 107.157 69.5402 74.769 76.9786L76.1472 71.789Z" fill="url(#paint6_linear_3_44)"/>
<path opacity="0.62" d="M67.5333 125.761C67.5333 125.761 91.6523 122.474 123.007 122.128V127.836C123.007 127.836 99.7494 127.145 65.8105 131.642L67.5333 125.761Z" fill="url(#paint7_linear_3_44)"/>
<path opacity="0.62" d="M64.4323 151.881C64.4323 151.881 89.0681 149.287 120.423 148.941V153.784C120.423 153.784 99.0603 153.611 63.7431 156.898L64.4323 151.881Z" fill="url(#paint8_linear_3_44)"/>
<path opacity="0.62" d="M71.4957 98.0828C71.4957 98.0828 95.6147 93.5852 128.175 92.3743L127.659 98.7747C127.659 98.7747 105.262 98.2558 70.1175 103.272L71.4957 98.0828Z" fill="url(#paint9_linear_3_44)"/>
<path d="M71.8402 93.9312L74.5967 79.9194H74.769C75.1135 79.9194 105.09 72.135 140.924 72.135C141.441 72.135 141.785 72.135 142.302 72.135H142.475V87.5307H142.302C141.958 87.5307 108.019 88.3957 72.1848 93.9312H71.8402ZM74.769 80.2653L72.1848 93.4123C106.641 88.2227 139.374 87.1848 141.958 87.0118V72.308C141.613 72.308 141.096 72.308 140.752 72.308C106.124 72.481 76.8363 79.7464 74.769 80.2653Z" fill="url(#paint10_linear_3_44)"/>
<path d="M67.1887 122.647V122.474L69.9452 108.116H70.1175C70.462 108.116 104.573 102.753 140.235 102.753C140.924 102.753 141.441 102.753 142.13 102.753H142.302V119.187H142.13C141.613 119.187 104.573 119.187 67.5333 122.647H67.1887ZM70.2897 108.462L67.7056 122.301C103.54 119.014 139.201 118.841 141.958 118.841V103.099C106.813 102.926 72.5294 108.116 70.2897 108.462Z" fill="url(#paint11_linear_3_44)"/>
<path d="M63.2263 149.114V148.941L65.6382 135.275H65.8105C66.1551 135.275 104.229 131.123 139.718 131.123C140.579 131.123 141.269 131.123 142.13 131.123H142.302V147.211H142.13C141.785 147.211 102.506 145.481 63.3986 149.287L63.2263 149.114ZM65.8105 135.448L63.5709 148.768C101.3 145.308 139.029 146.692 141.958 146.865V131.469C141.269 131.469 140.407 131.469 139.718 131.469C105.09 131.296 68.3947 135.275 65.8105 135.448Z" fill="url(#paint12_linear_3_44)"/>
<path d="M59.6085 174.197V174.024L62.0204 160.358H62.1926C62.7095 160.358 106.468 154.822 142.13 157.59H142.302V172.294H142.13C141.785 172.294 98.888 170.737 59.7807 174.37L59.6085 174.197ZM62.3649 160.531L60.1253 173.678C97.8544 170.218 139.029 171.429 141.958 171.602V157.59C107.33 155.168 64.9491 160.185 62.3649 160.531Z" fill="url(#paint13_linear_3_44)"/>
<path d="M180.548 193.744C162.459 187.69 142.302 187.862 142.13 187.862V187.517C142.302 187.517 162.631 187.171 180.72 193.398L180.548 193.744Z" fill="url(#paint14_linear_3_44)"/>
<path opacity="0.3" d="M186.061 197.896C128.348 184.922 46.6875 197.896 46.6875 197.896L68.5669 52.9336C68.5669 52.9336 59.0916 149.287 74.4244 171.775C91.8246 197.204 150.227 193.052 161.081 167.623C174.518 136.14 177.447 45.1492 177.275 39.0947L186.061 197.896Z" fill="url(#paint15_linear_3_44)"/>
<path d="M111.12 36.8459L112.326 40.3056L138.684 38.7487L139.374 35.635C139.374 35.635 130.415 34.9431 111.12 36.8459Z" fill="url(#paint16_linear_3_44)"/>
<path d="M92.1691 204.642C92.1691 204.642 171.934 201.528 193.986 204.642H92.1691Z" fill="#9A7DF8"/>
<path d="M198.465 140.291L208.974 121.782L214.315 126.626L204.495 140.291H198.465Z" fill="#9A7DF8"/>
<path d="M31.0102 88.0498L33.7666 80.7844L20.3289 71.0972L12.7486 76.9787L31.0102 88.0498Z" fill="#4F31E0"/>
<path d="M51.6836 29.2346L64.6045 25.429L67.5333 31.1375L51.6836 32.6944V29.2346Z" fill="#FF1D9C"/>
<path d="M186.406 48.436L204.495 38.5758L206.39 46.1872L187.612 52.7606L186.406 48.436Z" fill="#6877FF"/>
</g>
<defs>
<radialGradient id="paint0_radial_3_44" cx="0" cy="0" r="1" gradientUnits="userSpaceOnUse" gradientTransform="translate(198.025 73.5231) rotate(10.3941) scale(35.6622 35.7991)">
<stop stop-color="#3996F7"/>
<stop offset="1" stop-color="#6840D5"/>
</radialGradient>
<linearGradient id="paint1_linear_3_44" x1="63.9098" y1="198.737" x2="24.9847" y2="131.105" gradientUnits="userSpaceOnUse">
<stop stop-color="#1C257B"/>
<stop offset="1" stop-color="#6A2C9A"/>
</linearGradient>
<linearGradient id="paint2_linear_3_44" x1="116.916" y1="218.915" x2="116.916" y2="204.59" gradientUnits="userSpaceOnUse">
<stop stop-color="#1C257B"/>
<stop offset="1" stop-color="#482C83"/>
</linearGradient>
<linearGradient id="paint3_linear_3_44" x1="116.916" y1="204.59" x2="116.916" y2="53.0697" gradientUnits="userSpaceOnUse">
<stop stop-color="#744FD8"/>
<stop offset="1" stop-color="#3996F7"/>
</linearGradient>
<linearGradient id="paint4_linear_3_44" x1="123.415" y1="47.2135" x2="123.415" y2="35.4433" gradientUnits="userSpaceOnUse">
<stop stop-color="#1C257B"/>
<stop offset="1" stop-color="#482C83"/>
</linearGradient>
<linearGradient id="paint5_linear_3_44" x1="116.461" y1="197.962" x2="116.461" y2="38.7662" gradientUnits="userSpaceOnUse">
<stop stop-color="#D1BBFF"/>
<stop offset="1" stop-color="white"/>
</linearGradient>
<linearGradient id="paint6_linear_3_44" x1="74.6961" y1="70.0331" x2="130.318" y2="70.0331" gradientUnits="userSpaceOnUse">
<stop stop-color="#8B8BE0"/>
<stop offset="1" stop-color="#A177B7"/>
</linearGradient>
<linearGradient id="paint7_linear_3_44" x1="65.8196" y1="126.82" x2="122.948" y2="126.82" gradientUnits="userSpaceOnUse">
<stop stop-color="#8B8BE0"/>
<stop offset="1" stop-color="#A177B7"/>
</linearGradient>
<linearGradient id="paint8_linear_3_44" x1="63.7998" y1="152.921" x2="120.489" y2="152.921" gradientUnits="userSpaceOnUse">
<stop stop-color="#8B8BE0"/>
<stop offset="1" stop-color="#A177B7"/>
</linearGradient>
<linearGradient id="paint9_linear_3_44" x1="70.144" y1="97.838" x2="128.201" y2="97.838" gradientUnits="userSpaceOnUse">
<stop stop-color="#8B8BE0"/>
<stop offset="1" stop-color="#A177B7"/>
</linearGradient>
<linearGradient id="paint10_linear_3_44" x1="71.7643" y1="83.0281" x2="142.267" y2="83.0281" gradientUnits="userSpaceOnUse">
<stop stop-color="#8B8BE0"/>
<stop offset="1" stop-color="#A177B7"/>
</linearGradient>
<linearGradient id="paint11_linear_3_44" x1="67.2378" y1="112.734" x2="142.267" y2="112.734" gradientUnits="userSpaceOnUse">
<stop stop-color="#8B8BE0"/>
<stop offset="1" stop-color="#A177B7"/>
</linearGradient>
<linearGradient id="paint12_linear_3_44" x1="63.154" y1="140.068" x2="142.267" y2="140.068" gradientUnits="userSpaceOnUse">
<stop stop-color="#8B8BE0"/>
<stop offset="1" stop-color="#A177B7"/>
</linearGradient>
<linearGradient id="paint13_linear_3_44" x1="59.5985" y1="165.384" x2="142.267" y2="165.384" gradientUnits="userSpaceOnUse">
<stop stop-color="#8B8BE0"/>
<stop offset="1" stop-color="#A177B7"/>
</linearGradient>
<linearGradient id="paint14_linear_3_44" x1="142.093" y1="190.586" x2="180.7" y2="190.586" gradientUnits="userSpaceOnUse">
<stop stop-color="#8B8BE0"/>
<stop offset="1" stop-color="#A177B7"/>
</linearGradient>
<linearGradient id="paint15_linear_3_44" x1="116.461" y1="197.962" x2="116.461" y2="39.2158" gradientUnits="userSpaceOnUse">
<stop stop-color="#8B8BE0"/>
<stop offset="1" stop-color="white"/>
</linearGradient>
<linearGradient id="paint16_linear_3_44" x1="111.203" y1="37.885" x2="139.459" y2="37.885" gradientUnits="userSpaceOnUse">
<stop stop-color="#B9ACF4"/>
<stop offset="1" stop-color="#E1D1F5"/>
</linearGradient>
<clipPath id="clip0_3_44">
<rect width="220" height="219" fill="white"/>
</clipPath>
</defs>
</svg>
